<svg xmlns="http://www.w3.org/2000/svg" width="23" height="16" viewBox="0 0 19 13"><g fill="none" fill-rule="evenodd"><path fill="#FFF" d="M0 0H17.875V13H0z"/><path fill="#FF3131" d="M13 0H18.2V13H13zM0 0H5.2V13H0zM10.203 6.263c-.13.131-.208.095-.172-.083l.369-1.847-.867.434-.433-1.3-.433 1.3-.867-.434.37 1.847c.035.177-.043.214-.173.083l-.394-.393c-.13-.13-.337-.136-.473 0l-.197.197-.866-.434.433.867-.196.196c-.131.131-.135.34.001.476l1.062 1.061h1.3l.216 1.3h.434l.216-1.3h1.3l1.062-1.061c.132-.132.138-.34.001-.476L11.7 6.5l.433-.867-.866.434-.197-.197c-.13-.13-.343-.13-.473 0l-.394.393z"/></g></svg>