<svg xmlns="http://www.w3.org/2000/svg" width="23" height="16" viewBox="0 0 23 16"><g fill="none" fill-rule="evenodd"><path fill="#FFF" d="M0.5 0H22.5V16H0.5z"/><path fill="#fa4b21" d="M22.4 14.933V16H0v-1.067h22.4zm0-2.133v1.067H0V12.8h22.4zm0-2.133v1.066H0v-1.066h22.4zm0-2.134V9.6H0V8.533h22.4zm0-2.133v1.067H0V6.4h22.4zm0-2.133v1.066H0V4.267h22.4zm0-2.134V3.2H0V2.133h22.4zM22.4 0v1.067H0V0h22.4z"/><path fill="#3560b1" d="M0 0H9.6V7.467H0z"/><use fill="#000" filter="url(#prefix__a)"/><use fill="url(#prefix__c)"/></g></svg>